<svg width="1009" height="1117" viewBox="0 0 1009 1117" fill="none" xmlns="http://www.w3.org/2000/svg">
<path opacity="0.05" d="M161.449 684.203C161.449 684.203 139.109 601.545 181.555 556.865C224.001 512.185 333.467 480.909 373.679 594.843C413.891 708.777 514.421 585.907 530.059 523.355C545.697 460.803 626.248 348.189 757.927 342.401C961.221 333.465 1048.35 565.801 891.967 735.585C735.587 905.369 286.553 1072.92 161.449 684.203Z" fill="#4B74BC"/>
<path d="M860.823 518.268L817.13 518.259C814.208 518.259 811.84 515.889 811.84 512.967L811.849 472.176L866.122 472.187L866.113 512.978C866.113 515.9 863.745 518.268 860.823 518.268Z" fill="#CDDFF7"/>
<path d="M838.811 499.076C823.942 499.071 811.847 486.681 811.851 471.454C811.853 456.227 823.955 443.842 838.824 443.844C853.694 443.849 865.787 456.239 865.784 471.466C865.778 486.693 853.681 499.078 838.811 499.076ZM838.82 455.56C830.411 455.557 823.566 462.688 823.564 471.454C823.562 480.221 830.402 487.354 838.813 487.356C847.222 487.358 854.065 480.227 854.067 471.461C854.069 462.695 847.229 455.562 838.82 455.56Z" fill="#CDDFF7"/>
<path opacity="0.15" d="M866.122 471.926H811.507V479.691H866.122V471.926Z" fill="#6C99EA"/>
<path d="M844.119 500.173L842.917 497.959C844.599 496.571 845.609 494.308 845.247 491.791C844.859 489.087 842.803 486.836 840.268 486.364C836.374 485.643 832.992 488.804 832.989 492.805C832.989 494.907 833.939 496.759 835.391 497.956L834.187 500.168L831.182 505.688C830.309 507.292 831.399 509.298 833.146 509.301L839.153 509.303L845.16 509.305C846.905 509.305 847.997 507.299 847.124 505.695L844.119 500.173Z" fill="#4B74BC"/>
<path d="M510.047 677.67C510.047 677.67 501.133 695.245 497.525 696.921C493.917 698.596 477.153 697.678 475.922 700.544C474.689 703.413 477.558 704.644 485.343 706.293C493.129 707.941 504.6 712.872 509.732 704.885C514.863 696.899 523.978 682.809 523.978 682.809L510.047 677.67Z" fill="#FFDAD7"/>
<path d="M508.597 672.939C514.146 660.607 519.841 648.575 525.942 636.482C528.993 630.446 532.146 624.425 535.483 618.391C538.852 612.353 542.337 606.332 546.506 600.135C548.641 597.016 550.862 593.884 553.92 590.424L555.089 589.126L556.134 588.033L558.241 585.849C559.651 584.345 561.08 583.043 562.517 581.7C568.274 576.365 574.198 571.678 580.214 567.34C586.237 563.037 592.356 559.072 598.582 555.337C601.694 553.465 604.844 551.671 608.032 549.904L612.887 547.305L615.389 546.021L616.691 545.373L618.195 544.665L625.189 541.372C639.768 534.507 657.153 540.762 664.016 555.341C670.881 569.92 664.626 587.305 650.047 594.168C645.905 596.118 641.397 597.001 637.106 596.943C636.978 596.94 636.614 597.03 636.297 597.101L635.296 597.34L633.203 597.874L628.925 599.049C626.061 599.883 623.183 600.756 620.339 601.697C614.643 603.566 609.038 605.633 603.634 607.894C598.259 610.17 593.098 612.659 588.402 615.344C587.236 616.017 586.018 616.682 584.984 617.39L583.351 618.436L582.527 618.959L581.919 619.377C580.257 620.514 578.159 622.372 576.111 624.338C571.955 628.359 567.731 633.037 563.589 637.82C559.443 642.632 555.348 647.616 551.304 652.681C543.235 662.805 535.282 673.323 527.662 683.816L527.575 683.937C523.996 688.865 517.1 689.958 512.171 686.379C507.871 683.262 506.495 677.604 508.597 672.939Z" fill="#4B74BC"/>
<path d="M511.305 666.999C510.4 668.976 509.493 670.948 508.597 672.941C506.495 677.606 507.871 683.262 512.174 686.388C517.102 689.966 523.998 688.874 527.577 683.946L527.664 683.825C528.895 682.13 530.148 680.436 531.397 678.741C531.178 678.803 530.979 678.848 530.745 678.924C521.726 681.839 515.225 674.139 511.305 666.999Z" fill="#6C99EA"/>
<path d="M503.412 969.882C503.418 969.482 503.423 969.06 503.423 968.609C503.423 961.391 473.521 954.861 473.521 954.861L438.465 940.769C438.465 940.769 428.899 960.72 427.503 970.671H503.318C503.356 970.409 503.407 970.152 503.412 969.882Z" fill="#F97467"/>
<path d="M427.503 970.671C427.06 973.818 427.429 975.974 429.185 976.169C436.81 977.015 481.32 976.47 496.96 976.249C500.202 976.202 502.869 973.798 503.316 970.669H427.503V970.671Z" fill="#4B74BC"/>
<path d="M727.5 969.882C727.509 969.482 727.511 969.06 727.511 968.609C727.511 961.391 697.609 954.861 697.609 954.861L662.553 940.769C662.553 940.769 652.987 960.72 651.591 970.671H727.406C727.442 970.409 727.493 970.152 727.5 969.882Z" fill="#F97467"/>
<path d="M651.591 970.671C651.148 973.818 651.517 975.974 653.273 976.169C660.898 977.015 705.408 976.47 721.048 976.249C724.29 976.202 726.957 973.798 727.404 970.669H651.591V970.671Z" fill="#4B74BC"/>
<path d="M552.227 696.747C552.227 696.747 437.433 933.207 438.121 939.393C438.809 945.579 471.115 954.515 471.115 954.515L620.965 770.294L653.273 711.866L552.227 696.747Z" fill="#4B74BC"/>
<path d="M545.353 703.621L547.107 705.133L658.771 816.35C667.562 823.935 663.214 852.175 662.895 863.781C661.789 903.841 662.207 942.831 661.863 943.175C661.376 943.659 694.513 944.205 694.513 944.205C694.513 944.205 738.505 817.727 729.569 792.293C720.633 766.859 651.207 647.713 631.273 649.086C611.339 650.46 546.037 700.871 546.037 700.871" fill="#4B74BC"/>
<path d="M697.953 550.793C697.953 550.793 727.511 702.017 701.389 726.077C675.267 750.137 546.727 742.575 535.043 729.513C523.357 716.453 576.285 650.463 586.597 628.467C596.907 606.471 608.799 581.785 609.969 579.205C624.175 547.815 634.715 536.587 634.715 536.587C634.715 536.587 673.895 552.167 697.953 550.793Z" fill="#CDDFF7"/>
<path d="M654.419 499.239C654.419 499.239 655.335 518.715 651.211 532.691C647.087 546.667 691.537 544.835 691.537 544.835L693.599 510.007L651.897 489.615L654.419 499.239Z" fill="#FFDAD7"/>
<path d="M645.711 478.42C645.711 478.42 663.583 518.288 688.329 523.33C713.075 528.37 714.679 488.929 714.679 488.929C714.679 488.929 719.949 454.331 709.179 448.831C691.072 439.584 669.769 431.45 669.769 431.45L644.795 450.01C644.795 450.01 634.027 459.174 645.711 478.42Z" fill="#FFDAD7"/>
<path d="M713.305 471.057C713.305 471.057 721.325 483.429 720.637 486.867C719.949 490.303 711.013 490.303 711.013 490.303L713.305 471.057Z" fill="#FFDAD7"/>
<path d="M637.005 457.309C637.005 457.309 632.881 472.889 636.089 478.159C639.297 483.429 647.087 495.343 653.045 496.489C659.003 497.635 659.231 493.969 659.231 487.553C659.231 481.137 654.191 474.263 658.773 472.431C661.034 471.526 662.234 472.511 662.873 473.74C663.288 474.542 664.47 474.459 664.805 473.621C666.556 469.238 669.507 460.961 668.855 456.393C667.937 449.977 637.005 457.309 637.005 457.309Z" fill="#475188"/>
<path d="M690.163 465.787C690.163 465.787 704.599 471.745 716.283 466.933C718.803 466.245 718.803 453.185 714.449 452.727C710.095 452.269 693.599 454.559 693.599 454.559L690.163 465.787Z" fill="#475188"/>
<path d="M634.369 459.257C634.369 459.257 676.81 479.378 719.48 456.207C719.719 455.519 708.198 403.308 667.479 410.109C634.541 415.607 634.369 459.257 634.369 459.257Z" fill="#6C99EA"/>
<path opacity="0.15" d="M615.467 775.797L629.901 756.551L625.777 782.671L615.467 775.797Z" fill="#4B74BC"/>
<path opacity="0.15" d="M723.441 847.285C700.16 841.226 694.329 916.787 687.641 919.461C680.767 922.211 671.143 930.459 669.769 908.463C668.395 886.467 662.895 820.477 662.895 820.477L663.42 826.806C665.417 838.489 663.125 855.428 662.895 863.781C661.789 903.841 662.207 942.831 661.863 943.172C661.376 943.659 694.513 944.205 694.513 944.205C694.513 944.205 712.849 891.493 723.441 847.285Z" fill="#4B74BC"/>
<path d="M699.193 954.101L659.859 950.268C657.518 950.04 655.786 947.938 656.016 945.594L656.702 938.544C656.93 936.202 659.034 934.471 661.376 934.701L700.71 938.535C703.051 938.763 704.782 940.867 704.552 943.208L703.866 950.259C703.639 952.6 701.536 954.329 699.193 954.101Z" fill="#CDDFF7"/>
<path opacity="0.15" d="M493.799 913.961C474.551 925.647 474.551 913.961 472.491 901.589C471.358 894.791 477.173 867.315 484.117 838.407C459.547 890.07 437.822 936.692 438.123 939.395C438.811 945.581 471.117 954.517 471.117 954.517L514.175 901.582C506.193 906.434 498.888 910.871 493.799 913.961Z" fill="#4B74BC"/>
<path d="M476.275 956.959C458.504 952.819 449.968 949.227 434.712 939.607C432.44 938.175 431.734 935.349 433.077 933.417C434.692 931.089 435.498 929.923 437.102 927.588C438.434 925.649 441.121 925.158 443.13 926.422C456.623 934.916 464.176 938.095 479.921 941.747C482.265 942.29 483.837 944.549 483.377 946.859C482.823 949.638 482.544 951.027 481.977 953.804C481.505 956.105 478.92 957.575 476.275 956.959Z" fill="#CDDFF7"/>
<path d="M662.294 472.661C662.278 472.641 662.305 472.616 662.323 472.634C665.542 475.567 688.653 495.763 713.303 495.345C713.991 495.115 714.449 495.345 714.449 495.345C714.449 495.345 716.283 524.445 702.305 525.589C688.327 526.733 675.83 511.642 671.373 505.883C665.873 498.781 655.793 484.575 657.625 484.575C659.457 484.575 665.745 493.73 668.623 491.907C674.715 488.051 663.784 474.745 662.294 472.661Z" fill="#475188"/>
<path opacity="0.15" d="M702.765 516.423L658.315 486.865C658.315 486.865 648.968 474.296 657.719 498.95C665.281 509.558 675.944 520.806 688.329 523.328C709.777 527.7 702.063 524.242 702.765 516.423Z" fill="#EAB8B5"/>
<path opacity="0.15" d="M661.21 476.602C660.842 476.51 660.498 476.613 660.158 476.753C660.1 476.778 660.04 476.803 659.982 476.827C659.984 476.818 659.984 476.812 659.984 476.78C659.984 476.765 659.991 476.662 659.988 476.651C660.011 476.488 660.042 476.318 660.078 476.157C660.154 475.82 660.29 475.523 660.478 475.234C660.77 474.785 660.125 474.327 659.756 474.678C659.213 475.192 658.757 475.889 658.695 476.646C658.632 477.41 659.093 478.232 659.948 478.181C660.285 478.161 660.596 477.987 660.862 477.806C660.864 477.839 660.866 477.877 660.864 477.902C660.857 477.991 660.848 478.08 660.835 478.168C660.775 478.572 660.663 478.97 660.536 479.358C660.399 479.776 660.263 480.151 660.361 480.594C660.402 480.779 660.663 480.898 660.824 480.781C661.179 480.522 661.338 480.187 661.481 479.778C661.617 479.392 661.733 478.996 661.809 478.594C661.941 477.899 662.115 476.827 661.21 476.602Z" fill="#D6A2A1"/>
<path opacity="0.15" d="M719.457 455.937C719.18 454.036 716.316 442.211 709.215 430.959C706.884 433.579 703.864 436.758 699.843 440.525C689.848 449.887 653.791 449.561 635.457 448.739C634.997 451.391 634.733 453.701 634.581 455.481L636.433 456.851C636.433 456.851 652.759 461.491 653.617 463.381C654.374 465.047 684.466 465.778 694.555 465.34C697.397 464.746 700.279 464.015 703.189 463.104C708.232 461.091 715.056 458.03 719.457 455.937Z" fill="#475188"/>
<path d="M720.543 452.233C719.864 450.933 719.263 447.767 718.517 446.409C718.048 445.553 716.971 444.74 716.055 445.167C712.733 446.713 706.636 449.19 701.909 449.87C693.121 451.134 684.156 451.663 675.273 451.654C661.306 451.639 645.711 448.375 636.089 444.021C634.905 443.485 633.625 444.827 633.433 446.061C633.283 447.01 634.387 449.224 634.027 451.125C633.683 452.941 631.876 454.443 631.715 455.334C631.42 456.956 632.298 458.544 633.797 459.339C646.765 466.2 657.835 467.949 673.618 467.936C685.539 467.925 710.495 465.974 721.274 457.807C722.27 457.052 722.545 455.725 721.915 454.67C721.43 453.855 720.968 453.046 720.543 452.233Z" fill="#8ABAFF"/>
<mask id="mask0_45_232" style="mask-type:luminance" maskUnits="userSpaceOnUse" x="631" y="443" width="92" height="25">
<path d="M720.543 452.233C719.864 450.933 719.263 447.767 718.517 446.409C718.048 445.553 716.971 444.74 716.055 445.167C712.733 446.713 706.636 449.19 701.909 449.87C693.121 451.134 684.156 451.663 675.273 451.654C661.306 451.639 645.711 448.375 636.089 444.021C634.905 443.485 633.625 444.827 633.433 446.061C633.283 447.01 634.387 449.224 634.027 451.125C633.683 452.941 631.876 454.443 631.715 455.334C631.42 456.956 632.298 458.544 633.797 459.339C646.765 466.2 657.835 467.949 673.618 467.936C685.539 467.925 710.495 465.974 721.274 457.807C722.27 457.052 722.545 455.725 721.915 454.67C721.43 453.855 720.968 453.046 720.543 452.233Z" fill="white"/>
</mask>
<g mask="url(#mask0_45_232)">
<path d="M639.916 443.634C639.762 443.092 638.875 443.031 638.754 443.634C638.567 444.584 638.555 445.547 638.392 446.498C638.209 447.553 637.782 448.35 637.24 449.255C636.223 450.949 636.212 452.633 636.534 454.536C636.9 456.706 637.19 458.432 635.919 460.374C634.762 462.143 633.019 463.854 632.488 465.95C632.394 466.318 632.803 466.66 633.142 466.452C634.083 465.878 634.787 464.969 635.47 464.12C636.194 463.218 636.918 462.297 637.554 461.33C638.741 459.527 638.978 457.722 638.654 455.62C638.495 454.597 638.238 453.58 638.227 452.541C638.214 451.393 638.701 450.558 639.25 449.593C640.282 447.767 640.486 445.647 639.916 443.634Z" fill="#6C99EA"/>
</g>
<mask id="mask1_45_232" style="mask-type:luminance" maskUnits="userSpaceOnUse" x="631" y="443" width="92" height="25">
<path d="M720.543 452.233C719.864 450.933 719.263 447.767 718.517 446.409C718.048 445.553 716.971 444.74 716.055 445.167C712.733 446.713 706.636 449.19 701.909 449.87C693.121 451.134 684.156 451.663 675.273 451.654C661.306 451.639 645.711 448.375 636.089 444.021C634.905 443.485 633.625 444.827 633.433 446.061C633.283 447.01 634.387 449.224 634.027 451.125C633.683 452.941 631.876 454.443 631.715 455.334C631.42 456.956 632.298 458.544 633.797 459.339C646.765 466.2 657.835 467.949 673.618 467.936C685.539 467.925 710.495 465.974 721.274 457.807C722.27 457.052 722.545 455.725 721.915 454.67C721.43 453.855 720.968 453.046 720.543 452.233Z" fill="white"/>
</mask>
<g mask="url(#mask1_45_232)">
<path d="M648.74 451.17C649.287 449.485 650.733 447.39 650.087 445.565C649.922 445.095 649.198 444.894 648.939 445.415C648.519 446.259 648.325 447.209 647.965 448.082C647.61 448.942 647.185 449.776 646.89 450.66C646.283 452.472 646.229 454.438 646.339 456.328C646.448 458.234 646.727 460.13 646.767 462.04C646.805 463.897 646.415 465.695 646.249 467.536C646.218 467.893 646.678 468.007 646.904 467.809C649.743 465.298 648.528 460.309 648.289 457.023C648.146 455.052 648.124 453.069 648.74 451.17Z" fill="#6C99EA"/>
</g>
<mask id="mask2_45_232" style="mask-type:luminance" maskUnits="userSpaceOnUse" x="631" y="443" width="92" height="25">
<path d="M720.543 452.233C719.864 450.933 719.263 447.767 718.517 446.409C718.048 445.553 716.971 444.74 716.055 445.167C712.733 446.713 706.636 449.19 701.909 449.87C693.121 451.134 684.156 451.663 675.273 451.654C661.306 451.639 645.711 448.375 636.089 444.021C634.905 443.485 633.625 444.827 633.433 446.061C633.283 447.01 634.387 449.224 634.027 451.125C633.683 452.941 631.876 454.443 631.715 455.334C631.42 456.956 632.298 458.544 633.797 459.339C646.765 466.2 657.835 467.949 673.618 467.936C685.539 467.925 710.495 465.974 721.274 457.807C722.27 457.052 722.545 455.725 721.915 454.67C721.43 453.855 720.968 453.046 720.543 452.233Z" fill="white"/>
</mask>
<g mask="url(#mask2_45_232)">
<path d="M660.913 446.61C658.25 449.709 656.91 453.359 656.861 457.452C656.834 459.735 657.158 462.007 657.118 464.29C657.098 465.387 656.995 466.479 656.736 467.547C656.613 468.054 656.387 468.55 656.289 469.06C656.2 469.526 656.291 469.951 656.275 470.418C656.262 470.84 656.769 471.135 657.129 470.907C657.996 470.36 658.447 469.935 658.795 468.934C659.133 467.96 659.285 466.917 659.356 465.892C659.506 463.74 659.191 461.6 659.005 459.462C658.637 455.157 659.423 450.937 661.691 447.211C661.983 446.74 661.289 446.174 660.913 446.61Z" fill="#6C99EA"/>
</g>
<mask id="mask3_45_232" style="mask-type:luminance" maskUnits="userSpaceOnUse" x="631" y="443" width="92" height="25">
<path d="M720.543 452.233C719.864 450.933 719.263 447.767 718.517 446.409C718.048 445.553 716.971 444.74 716.055 445.167C712.733 446.713 706.636 449.19 701.909 449.87C693.121 451.134 684.156 451.663 675.273 451.654C661.306 451.639 645.711 448.375 636.089 444.021C634.905 443.485 633.625 444.827 633.433 446.061C633.283 447.01 634.387 449.224 634.027 451.125C633.683 452.941 631.876 454.443 631.715 455.334C631.42 456.956 632.298 458.544 633.797 459.339C646.765 466.2 657.835 467.949 673.618 467.936C685.539 467.925 710.495 465.974 721.274 457.807C722.27 457.052 722.545 455.725 721.915 454.67C721.43 453.855 720.968 453.046 720.543 452.233Z" fill="white"/>
</mask>
<g mask="url(#mask3_45_232)">
<path d="M672.309 463.58C671.601 461.406 671.538 459.393 671.634 457.123C671.733 454.802 671.822 452.459 672.01 450.147C672.072 449.383 670.881 449.248 670.689 449.968C670.151 451.994 669.695 453.971 669.494 456.06C669.304 458.044 669.074 460.124 669.394 462.105C669.702 464.022 670.725 465.825 670.58 467.804C670.519 468.615 670.289 469.453 669.945 470.19C669.57 470.992 668.945 471.653 668.759 472.538C668.625 473.175 669.139 473.671 669.769 473.548C671.46 473.215 672.468 471.03 672.843 469.52C673.354 467.467 672.95 465.546 672.309 463.58Z" fill="#6C99EA"/>
</g>
<mask id="mask4_45_232" style="mask-type:luminance" maskUnits="userSpaceOnUse" x="631" y="443" width="92" height="25">
<path d="M720.543 452.233C719.864 450.933 719.263 447.767 718.517 446.409C718.048 445.553 716.971 444.74 716.055 445.167C712.733 446.713 706.636 449.19 701.909 449.87C693.121 451.134 684.156 451.663 675.273 451.654C661.306 451.639 645.711 448.375 636.089 444.021C634.905 443.485 633.625 444.827 633.433 446.061C633.283 447.01 634.387 449.224 634.027 451.125C633.683 452.941 631.876 454.443 631.715 455.334C631.42 456.956 632.298 458.544 633.797 459.339C646.765 466.2 657.835 467.949 673.618 467.936C685.539 467.925 710.495 465.974 721.274 457.807C722.27 457.052 722.545 455.725 721.915 454.67C721.43 453.855 720.968 453.046 720.543 452.233Z" fill="white"/>
</mask>
<g mask="url(#mask4_45_232)">
<path d="M686.222 462.905C685.527 458.535 683.524 454.436 683.383 449.966C683.36 449.242 682.252 449.034 682.08 449.789C681.14 453.924 682.605 457.834 683.528 461.828C683.926 463.551 684.162 465.318 684.033 467.087C683.966 468.001 683.76 468.89 683.463 469.754C683.188 470.559 682.804 471.287 682.715 472.138C682.668 472.587 683.238 473.038 683.664 472.862C685.306 472.178 685.999 470.246 686.285 468.604C686.618 466.707 686.524 464.804 686.222 462.905Z" fill="#6C99EA"/>
</g>
<mask id="mask5_45_232" style="mask-type:luminance" maskUnits="userSpaceOnUse" x="631" y="443" width="92" height="25">
<path d="M720.543 452.233C719.864 450.933 719.263 447.767 718.517 446.409C718.048 445.553 716.971 444.74 716.055 445.167C712.733 446.713 706.636 449.19 701.909 449.87C693.121 451.134 684.156 451.663 675.273 451.654C661.306 451.639 645.711 448.375 636.089 444.021C634.905 443.485 633.625 444.827 633.433 446.061C633.283 447.01 634.387 449.224 634.027 451.125C633.683 452.941 631.876 454.443 631.715 455.334C631.42 456.956 632.298 458.544 633.797 459.339C646.765 466.2 657.835 467.949 673.618 467.936C685.539 467.925 710.495 465.974 721.274 457.807C722.27 457.052 722.545 455.725 721.915 454.67C721.43 453.855 720.968 453.046 720.543 452.233Z" fill="white"/>
</mask>
<g mask="url(#mask5_45_232)">
<path d="M700.761 470.793C700.506 470.081 699.747 469.721 699.43 468.99C698.992 467.983 699.101 466.745 699.023 465.668C698.873 463.595 698.567 461.529 698.069 459.509C697.589 457.566 696.927 455.669 696.027 453.882C695.263 452.363 694.101 450.037 692.352 449.488C692.086 449.403 691.72 449.639 691.756 449.941C691.865 450.884 692.448 451.708 692.891 452.532C693.418 453.511 693.956 454.478 694.387 455.504C695.259 457.588 695.873 459.771 696.271 461.993C696.666 464.207 696.612 466.488 697.03 468.686C697.211 469.636 697.631 470.608 698.444 471.182C699.059 471.615 700.024 471.964 700.614 471.347C700.748 471.206 700.828 470.983 700.761 470.793Z" fill="#6C99EA"/>
</g>
<mask id="mask6_45_232" style="mask-type:luminance" maskUnits="userSpaceOnUse" x="631" y="443" width="92" height="25">
<path d="M720.543 452.233C719.864 450.933 719.263 447.767 718.517 446.409C718.048 445.553 716.971 444.74 716.055 445.167C712.733 446.713 706.636 449.19 701.909 449.87C693.121 451.134 684.156 451.663 675.273 451.654C661.306 451.639 645.711 448.375 636.089 444.021C634.905 443.485 633.625 444.827 633.433 446.061C633.283 447.01 634.387 449.224 634.027 451.125C633.683 452.941 631.876 454.443 631.715 455.334C631.42 456.956 632.298 458.544 633.797 459.339C646.765 466.2 657.835 467.949 673.618 467.936C685.539 467.925 710.495 465.974 721.274 457.807C722.27 457.052 722.545 455.725 721.915 454.67C721.43 453.855 720.968 453.046 720.543 452.233Z" fill="white"/>
</mask>
<g mask="url(#mask6_45_232)">
<path d="M708.493 456.433C707.628 454.349 706.5 452.394 705.56 450.345C705.104 449.356 704.702 448.362 704.396 447.316C704.09 446.271 703.94 445.165 703.422 444.197C703.216 443.815 702.671 443.856 702.457 444.197C701.409 445.862 702.048 448.212 702.604 449.948C703.27 452.019 704.291 453.958 705.178 455.939C706.051 457.887 706.907 459.916 707.027 462.074C707.101 463.396 706.954 464.701 706.668 465.99C706.373 467.315 705.984 468.517 706.147 469.888C706.23 470.592 707.023 471.037 707.593 470.487C709.387 468.753 709.78 465.827 709.894 463.437C710.01 461.006 709.418 458.665 708.493 456.433Z" fill="#6C99EA"/>
</g>
<mask id="mask7_45_232" style="mask-type:luminance" maskUnits="userSpaceOnUse" x="631" y="443" width="92" height="25">
<path d="M720.543 452.233C719.864 450.933 719.263 447.767 718.517 446.409C718.048 445.553 716.971 444.74 716.055 445.167C712.733 446.713 706.636 449.19 701.909 449.87C693.121 451.134 684.156 451.663 675.273 451.654C661.306 451.639 645.711 448.375 636.089 444.021C634.905 443.485 633.625 444.827 633.433 446.061C633.283 447.01 634.387 449.224 634.027 451.125C633.683 452.941 631.876 454.443 631.715 455.334C631.42 456.956 632.298 458.544 633.797 459.339C646.765 466.2 657.835 467.949 673.618 467.936C685.539 467.925 710.495 465.974 721.274 457.807C722.27 457.052 722.545 455.725 721.915 454.67C721.43 453.855 720.968 453.046 720.543 452.233Z" fill="white"/>
</mask>
<g mask="url(#mask7_45_232)">
<path d="M718.642 459.065C718.43 457 718.048 454.965 717.418 452.986C716.162 449.036 714.134 445.466 711.464 442.303C710.807 441.526 709.427 442.569 710.039 443.402C712.297 446.481 714.009 449.966 715.074 453.632C715.606 455.461 716.024 457.347 716.236 459.241C716.433 460.995 716.285 463.095 716.957 464.741C717.143 465.195 717.777 465.373 718.059 464.884C719.008 463.24 718.832 460.885 718.642 459.065Z" fill="#6C99EA"/>
</g>
<path d="M664.271 458.426C657.212 458.31 650.241 456.694 643.866 453.658C642.583 453.048 641.457 454.959 642.746 455.573C649.484 458.783 656.805 460.521 664.271 460.644C665.699 460.666 665.699 458.45 664.271 458.426Z" fill="#6C99EA"/>
<path d="M689.225 459.293C689.053 458.663 688.454 458.424 687.862 458.52C684.839 459.004 681.765 459.15 678.707 458.998C678.108 458.969 677.599 459.529 677.599 460.106C677.599 460.731 678.108 461.185 678.707 461.214C681.969 461.377 685.226 461.176 688.452 460.658C689.042 460.559 689.37 459.824 689.225 459.293Z" fill="#6C99EA"/>
<path d="M641.759 524.901C641.759 531.864 629.682 531.446 631.735 535.039C636.547 543.458 653.503 561.33 694.745 560.872C709.483 560.709 705.316 552.642 703.131 543.05C702.209 539.002 698.293 536.444 694.18 537.002C689.899 537.583 683.812 537.681 676.643 535.727C658.123 530.676 641.759 518.297 641.759 524.901Z" fill="#6C99EA"/>
<path d="M700.527 565.008C693.854 565.43 687.167 565.588 680.508 565.405C659.872 564.84 636.844 560.482 617.37 551.275C615.358 553.733 613.275 556.563 611.18 559.836C617.411 564.449 623.941 568.428 631.704 571.607C645.592 577.295 660.062 580.266 674.992 581.499C684.437 582.279 693.849 582.201 703.236 581.544C702.256 575.255 701.324 569.648 700.527 565.008Z" fill="#6C99EA"/>
<path d="M600.959 583.436C600.142 586.939 599.103 591.275 597.827 596.071C619.904 606.098 644.257 610.869 669.336 612.619C682.087 613.508 694.91 613.836 707.729 613.838C707.121 608.832 706.485 603.951 705.837 599.259C694.761 599.154 683.684 598.828 672.653 598.031C648.751 596.304 623.833 592.146 600.959 583.436Z" fill="#6C99EA"/>
<path d="M709.295 627.752C691.664 629.765 673.287 630.817 656.012 630.426C634.389 629.934 611.826 625.938 590.873 618.23C589.561 621.724 588.141 625.176 586.597 628.467C586.177 629.362 585.663 630.357 585.109 631.393C606.261 640.959 629.715 645.963 651.329 646.754C671.319 647.485 691.032 646.073 710.798 644.263C710.369 638.752 709.86 633.223 709.295 627.752Z" fill="#6C99EA"/>
<path d="M711.927 663.596C709.891 664.043 707.852 664.463 705.803 664.854C687.391 668.364 668.558 669.682 649.833 668.886C623.154 667.751 596.934 661.829 571.853 652.755C569.364 656.535 566.739 660.496 564.065 664.55C590.272 676.636 618.954 682.844 648.012 684.294C667.499 685.268 687.125 683.95 706.295 680.293C708.153 679.938 710.122 679.572 712.15 679.19C712.204 674.165 712.123 668.944 711.927 663.596Z" fill="#6C99EA"/>
<path d="M711.232 696.979C689.786 700.714 667.937 701.909 646.191 701.463C623.786 701.002 601.442 699.128 579.267 695.882C568.839 694.354 557.951 693.119 547.361 690.896C544.774 695.263 542.411 699.494 540.382 703.484C549.611 706.583 559.266 708.676 569.127 710.488C593.178 714.907 617.781 717.95 642.235 718.678C664.133 719.33 686.07 718.227 707.74 714.996C709.396 709.988 710.528 703.875 711.232 696.979Z" fill="#6C99EA"/>
<path d="M504.594 699.412C504.594 699.412 497.19 717.672 493.736 719.647C490.28 721.622 473.501 722.116 472.513 725.076C471.526 728.038 474.488 729.023 482.385 730.011C490.283 730.998 502.127 734.946 506.568 726.555C511.01 718.164 518.907 703.359 518.907 703.359L504.594 699.412Z" fill="#FFDAD7"/>
<path d="M502.751 694.821C507.241 682.065 511.905 669.597 516.968 657.033C519.501 650.762 522.135 644.496 524.954 638.205C527.803 631.903 530.769 625.612 534.402 619.086C536.267 615.8 538.215 612.491 540.972 608.785L542.029 607.393L542.978 606.216L544.893 603.861C546.171 602.244 547.486 600.828 548.804 599.369C554.092 593.567 559.601 588.4 565.231 583.57C570.87 578.776 576.633 574.31 582.524 570.065C585.469 567.939 588.456 565.883 591.483 563.857L596.103 560.859L598.486 559.369L599.731 558.614L601.169 557.783L607.862 553.914C621.814 545.847 639.661 550.616 647.728 564.568C655.795 578.519 651.026 596.366 637.074 604.433C633.111 606.725 628.692 607.983 624.412 608.287C624.285 608.296 623.929 608.416 623.619 608.513L622.64 608.837L620.601 609.545L616.437 611.075C613.653 612.147 610.861 613.26 608.104 614.435C602.586 616.778 597.173 619.309 591.979 622.017C586.814 624.738 581.883 627.651 577.429 630.723C576.323 631.491 575.166 632.256 574.196 633.051L572.657 634.23L571.879 634.82L571.31 635.289C569.748 636.563 567.816 638.591 565.939 640.722C562.137 645.079 558.319 650.096 554.595 655.21C550.869 660.353 547.207 665.665 543.604 671.053C536.415 681.821 529.375 692.971 522.664 704.067L522.586 704.195C519.434 709.407 512.654 711.075 507.444 707.923C502.894 705.169 501.048 699.646 502.751 694.821Z" fill="#4B74BC"/>
<path d="M504.949 688.673C504.214 690.719 503.474 692.761 502.751 694.821C501.048 699.646 502.896 705.169 507.446 707.919C512.658 711.071 519.436 709.402 522.588 704.19L522.667 704.063C523.75 702.271 524.856 700.477 525.957 698.683C525.745 698.764 525.551 698.824 525.323 698.92C516.581 702.584 509.455 695.458 504.949 688.673Z" fill="#6C99EA"/>
<path opacity="0.15" d="M701.391 726.077C703.556 724.082 705.332 721.198 706.782 717.612C689.231 728.045 656.854 732.424 648.005 732.721C631.722 733.268 619.189 733.5 609.48 733.503C596.252 733.505 591.005 716.399 601.942 708.96L606.761 705.683C608.061 704.561 607.027 702.45 605.342 702.79C597.05 704.456 567.724 721.122 552.687 718.973C530.233 715.765 563.685 667.649 563.685 667.649C563.685 667.649 562.313 668.779 560.079 670.622C543.921 695.391 528.113 721.765 535.045 729.513C546.729 742.573 675.269 750.135 701.391 726.077Z" fill="#6C99EA"/>
<path d="M153.407 542.983C152.276 552.529 157.052 562.197 166.118 566.824L465.865 719.79C474.957 724.43 485.625 722.598 492.693 716.033L153.407 542.983Z" fill="#DD645E"/>
<path d="M497.673 709.476L643.341 424.029L301.436 249.643L155.806 535.014C154.497 537.581 153.728 540.277 153.409 542.98L492.693 716.031C494.666 714.199 496.377 712.016 497.673 709.476Z" fill="#F97467"/>
<path d="M688.121 336.181C694.057 324.549 689.439 310.309 677.809 304.374L378.062 151.407C366.432 145.471 352.19 150.089 346.254 161.719L301.396 249.623L643.3 424.009L688.121 336.181Z" fill="#FFCECC"/>
<g opacity="0.15">
<path d="M437.404 631.612L264.903 543.63C257.696 539.956 254.808 531.053 258.485 523.846L266.695 507.748C270.37 500.543 279.272 497.655 286.479 501.33L458.98 589.311C466.184 592.986 469.073 601.889 465.398 609.096L457.188 625.194C453.511 632.398 444.608 635.287 437.404 631.612Z" fill="#14334C"/>
<path d="M331.1 548.802L334.042 543.035L334.866 543.456L332.29 548.506L335.412 550.099L335.046 550.815L331.1 548.802ZM338.457 552.638C338.017 552.414 337.646 552.131 337.343 551.789C337.045 551.451 336.826 551.079 336.686 550.676C336.548 550.266 336.494 549.844 336.522 549.409C336.551 548.973 336.673 548.544 336.888 548.121C337.104 547.698 337.38 547.348 337.716 547.069C338.052 546.79 338.424 546.589 338.833 546.466C339.245 546.337 339.676 546.293 340.125 546.336C340.574 546.378 341.021 546.512 341.466 546.739C341.905 546.963 342.271 547.244 342.563 547.58C342.864 547.913 343.083 548.284 343.22 548.693C343.366 549.1 343.422 549.519 343.388 549.952C343.36 550.387 343.236 550.819 343.018 551.248C342.799 551.676 342.522 552.03 342.186 552.308C341.856 552.589 341.482 552.793 341.064 552.92C340.655 553.043 340.226 553.084 339.777 553.042C339.336 552.997 338.896 552.862 338.457 552.638ZM338.831 551.905C339.149 552.067 339.471 552.162 339.796 552.19C340.127 552.22 340.442 552.187 340.74 552.09C341.047 551.99 341.324 551.834 341.571 551.621C341.824 551.41 342.031 551.146 342.194 550.828C342.356 550.509 342.449 550.186 342.47 549.858C342.498 549.533 342.46 549.219 342.358 548.918C342.264 548.614 342.108 548.337 341.889 548.087C341.676 547.84 341.41 547.635 341.092 547.473C340.768 547.307 340.44 547.209 340.11 547.179C339.784 547.152 339.468 547.188 339.162 547.287C338.858 547.381 338.579 547.534 338.327 547.744C338.079 547.957 337.875 548.223 337.712 548.541C337.55 548.86 337.455 549.182 337.427 549.507C337.405 549.835 337.444 550.152 337.544 550.459C337.646 550.761 337.804 551.035 338.017 551.282C338.235 551.532 338.507 551.739 338.831 551.905ZM345.376 556.167C344.931 555.94 344.558 555.66 344.257 555.327C343.96 554.988 343.741 554.617 343.6 554.213C343.463 553.804 343.409 553.382 343.437 552.946C343.465 552.511 343.589 552.079 343.807 551.651C344.026 551.222 344.303 550.869 344.639 550.59C344.975 550.312 345.347 550.111 345.756 549.987C346.174 549.861 346.606 549.821 347.052 549.869C347.501 549.911 347.951 550.047 348.401 550.277C348.857 550.51 349.236 550.797 349.54 551.138C349.843 551.48 350.051 551.866 350.163 552.297L349.392 552.547C349.273 552.196 349.101 551.897 348.874 551.65C348.655 551.4 348.384 551.192 348.06 551.027C347.73 550.859 347.395 550.757 347.053 550.721C346.717 550.688 346.394 550.717 346.085 550.809C345.781 550.903 345.501 551.058 345.245 551.273C344.998 551.486 344.794 551.752 344.631 552.071C344.471 552.384 344.376 552.706 344.346 553.036C344.324 553.364 344.363 553.682 344.463 553.989C344.57 554.293 344.736 554.571 344.96 554.824C345.185 555.077 345.461 555.287 345.791 555.455C346.098 555.612 346.416 555.715 346.744 555.765C347.08 555.812 347.426 555.784 347.783 555.682L347.933 556.548C347.524 556.644 347.095 556.657 346.646 556.587C346.206 556.515 345.782 556.375 345.376 556.167ZM347.197 556.037L348.289 553.895L349.08 554.299L347.933 556.548L347.197 556.037ZM349.17 558.02L352.111 552.253L352.935 552.673L349.994 558.44L349.17 558.02ZM351.72 559.321L354.662 553.554L355.337 553.898L356.735 560.581L356.381 560.4L358.797 555.663L359.621 556.084L356.68 561.85L356.004 561.506L354.606 554.823L354.96 555.004L352.544 559.741L351.72 559.321Z" fill="#14334C"/>
</g>
<path d="M434.357 628.567L261.856 540.586C254.651 536.911 251.763 528.008 255.438 520.801L263.648 504.703C267.323 497.498 276.225 494.61 283.432 498.285L455.933 586.266C463.139 589.941 466.028 598.844 462.351 606.051L454.141 622.149C450.466 629.354 441.564 632.242 434.357 628.567Z" fill="white"/>
<path d="M328.055 545.757L330.996 539.99L331.82 540.41L329.244 545.46L332.366 547.053L332.001 547.77L328.055 545.757ZM335.411 549.592C334.972 549.368 334.6 549.085 334.297 548.744C333.999 548.405 333.78 548.034 333.64 547.63C333.503 547.221 333.448 546.798 333.477 546.363C333.505 545.928 333.627 545.498 333.843 545.076C334.058 544.653 334.334 544.302 334.67 544.023C335.006 543.745 335.379 543.544 335.788 543.42C336.2 543.291 336.63 543.248 337.079 543.29C337.528 543.332 337.975 543.467 338.42 543.694C338.859 543.918 339.225 544.198 339.518 544.534C339.818 544.867 340.037 545.238 340.175 545.648C340.32 546.054 340.376 546.474 340.342 546.906C340.314 547.342 340.191 547.774 339.972 548.202C339.754 548.631 339.476 548.984 339.14 549.263C338.81 549.544 338.436 549.748 338.019 549.874C337.61 549.997 337.181 550.038 336.731 549.996C336.291 549.951 335.851 549.816 335.411 549.592ZM335.785 548.859C336.104 549.022 336.426 549.117 336.751 549.144C337.081 549.174 337.396 549.141 337.695 549.044C338.001 548.945 338.278 548.788 338.526 548.575C338.778 548.365 338.986 548.1 339.148 547.782C339.311 547.463 339.403 547.14 339.425 546.812C339.452 546.487 339.415 546.174 339.312 545.872C339.218 545.568 339.062 545.291 338.844 545.041C338.63 544.794 338.365 544.589 338.046 544.427C337.722 544.262 337.395 544.164 337.064 544.134C336.739 544.106 336.423 544.142 336.116 544.242C335.812 544.336 335.534 544.488 335.281 544.698C335.034 544.911 334.829 545.177 334.667 545.496C334.504 545.814 334.409 546.136 334.382 546.461C334.36 546.789 334.399 547.107 334.498 547.414C334.6 547.715 334.758 547.989 334.971 548.236C335.19 548.486 335.461 548.694 335.785 548.859ZM342.33 553.122C341.885 552.895 341.512 552.615 341.212 552.281C340.914 551.943 340.695 551.571 340.555 551.168C340.418 550.758 340.363 550.336 340.391 549.901C340.42 549.465 340.543 549.033 340.762 548.605C340.98 548.177 341.257 547.823 341.593 547.544C341.929 547.266 342.302 547.065 342.711 546.941C343.128 546.815 343.56 546.776 344.006 546.824C344.455 546.866 344.905 547.002 345.355 547.231C345.811 547.464 346.191 547.751 346.494 548.093C346.798 548.434 347.005 548.821 347.118 549.252L346.346 549.502C346.228 549.151 346.055 548.852 345.828 548.604C345.61 548.354 345.338 548.147 345.014 547.982C344.685 547.813 344.349 547.711 344.008 547.676C343.672 547.643 343.349 547.672 343.039 547.763C342.735 547.857 342.455 548.012 342.2 548.228C341.953 548.441 341.748 548.707 341.585 549.025C341.426 549.338 341.331 549.66 341.301 549.991C341.279 550.319 341.317 550.636 341.417 550.943C341.525 551.247 341.691 551.526 341.915 551.778C342.139 552.031 342.416 552.241 342.745 552.41C343.053 552.566 343.37 552.67 343.698 552.719C344.034 552.766 344.38 552.738 344.737 552.636L344.887 553.502C344.478 553.598 344.049 553.611 343.601 553.541C343.16 553.469 342.736 553.329 342.33 553.122ZM344.151 552.992L345.244 550.85L346.034 551.253L344.887 553.502L344.151 552.992ZM346.124 554.974L349.066 549.207L349.89 549.627L346.948 555.394L346.124 554.974ZM348.674 556.275L351.616 550.508L352.292 550.853L353.69 557.535L353.335 557.355L355.752 552.618L356.576 553.038L353.634 558.805L352.958 558.46L351.56 551.777L351.915 551.958L349.498 556.695L348.674 556.275Z" fill="#F97467"/>
<path d="M515.111 316.08C513.031 310.825 507.049 308.283 501.877 310.557C496.241 313.035 489.827 313.135 484.202 310.265C479.084 307.653 475.567 303.073 473.99 297.736C472.382 292.294 466.788 289.073 461.381 290.8C448.833 294.81 437.542 304.15 430.952 317.55C430.954 317.556 430.956 317.561 430.959 317.568L512.241 359.048C512.247 359.046 512.252 359.046 512.258 359.044C519.736 344.907 520.283 329.142 515.111 316.08Z" fill="#F97467"/>
<path d="M501.79 275.796C493.555 271.594 483.587 274.643 479.526 282.603C478.516 284.583 477.966 286.68 477.837 288.778C477.446 295.118 480.891 301.469 487.077 304.626C493.593 307.95 501.182 306.722 506.084 302.126C507.377 300.913 508.492 299.481 509.341 297.819C513.404 289.859 510.024 279.998 501.79 275.796Z" fill="#F97467"/>
<path d="M353.38 454.988C353.055 454.822 352.8 454.598 352.613 454.317C352.428 454.03 352.329 453.706 352.315 453.344C352.309 452.98 352.41 452.593 352.62 452.182C352.829 451.772 353.082 451.465 353.378 451.262C353.677 451.053 353.995 450.942 354.333 450.928C354.671 450.914 355.004 450.991 355.334 451.159C355.691 451.342 355.97 451.586 356.168 451.892C356.374 452.196 356.484 452.534 356.498 452.908C356.514 453.277 356.426 453.65 356.233 454.027C356.038 454.408 355.787 454.701 355.479 454.904C355.17 455.108 354.832 455.218 354.463 455.234C354.098 455.252 353.737 455.17 353.38 454.988ZM350.75 455.35L353.376 450.205L353.863 450.454L353.286 451.584L352.852 452.31L352.536 453.105L351.258 455.61L350.75 455.35ZM353.574 454.519C353.841 454.655 354.11 454.717 354.381 454.705C354.654 454.688 354.909 454.602 355.145 454.445C355.383 454.284 355.577 454.059 355.725 453.768C355.874 453.477 355.942 453.19 355.93 452.907C355.918 452.624 355.839 452.367 355.692 452.136C355.545 451.905 355.338 451.721 355.071 451.585C354.804 451.448 354.532 451.387 354.254 451.402C353.98 451.419 353.726 451.505 353.49 451.661C353.258 451.82 353.069 452.045 352.92 452.336C352.772 452.627 352.7 452.915 352.705 453.2C352.717 453.483 352.796 453.74 352.942 453.971C353.096 454.2 353.307 454.382 353.574 454.519ZM358.642 457.628L359.065 456.798L359.113 456.651L359.822 455.263C359.985 454.943 360.02 454.652 359.926 454.387C359.837 454.125 359.616 453.904 359.263 453.724C359.02 453.6 358.768 453.523 358.507 453.492C358.246 453.461 358.005 453.473 357.785 453.529L357.749 453.033C358.023 452.968 358.315 452.961 358.626 453.011C358.939 453.057 359.244 453.155 359.54 453.306C360.026 453.554 360.339 453.867 360.477 454.244C360.622 454.619 360.57 455.052 360.319 455.544L359.128 457.877L358.642 457.628ZM357.328 457.003C357.047 456.859 356.824 456.689 356.661 456.491C356.504 456.291 356.412 456.082 356.385 455.863C356.361 455.64 356.404 455.422 356.513 455.207C356.613 455.011 356.748 454.858 356.919 454.747C357.098 454.633 357.316 454.582 357.575 454.594C357.84 454.604 358.152 454.7 358.51 454.882L359.805 455.543L359.612 455.922L358.331 455.269C357.968 455.084 357.682 455.019 357.474 455.075C357.269 455.133 357.119 455.257 357.021 455.448C356.912 455.663 356.908 455.877 357.009 456.091C357.11 456.305 357.311 456.489 357.611 456.642C357.898 456.789 358.176 456.85 358.447 456.825C358.725 456.799 358.975 456.686 359.197 456.487L359.133 456.896C358.911 457.095 358.643 457.208 358.329 457.234C358.02 457.263 357.686 457.186 357.328 457.003ZM361.499 459.132C361.189 458.973 360.917 458.781 360.685 458.554C360.454 458.322 360.294 458.099 360.205 457.885L360.639 457.601C360.733 457.794 360.877 457.994 361.072 458.201C361.269 458.404 361.499 458.572 361.761 458.706C362.119 458.889 362.405 458.966 362.618 458.936C362.834 458.902 362.989 458.792 363.084 458.606C363.155 458.468 363.164 458.337 363.113 458.214C363.068 458.09 362.984 457.972 362.86 457.86C362.739 457.744 362.598 457.627 362.436 457.508C362.274 457.39 362.114 457.266 361.957 457.138C361.805 457.012 361.676 456.877 361.569 456.732C361.465 456.583 361.4 456.421 361.376 456.246C361.355 456.073 361.4 455.879 361.51 455.665C361.614 455.459 361.765 455.305 361.963 455.201C362.16 455.097 362.391 455.056 362.657 455.078C362.93 455.097 363.226 455.188 363.546 455.351C363.789 455.475 364.016 455.633 364.225 455.824C364.436 456.01 364.594 456.195 364.698 456.381L364.268 456.675C364.159 456.476 364.022 456.303 363.855 456.158C363.691 456.008 363.514 455.885 363.323 455.787C362.984 455.614 362.704 455.546 362.481 455.583C362.265 455.617 362.11 455.725 362.018 455.906C361.945 456.049 361.931 456.183 361.975 456.308C362.024 456.435 362.108 456.559 362.227 456.68C362.353 456.799 362.495 456.916 362.652 457.032C362.814 457.151 362.97 457.276 363.119 457.406C363.276 457.534 363.408 457.671 363.515 457.815C363.629 457.958 363.696 458.115 363.716 458.288C363.743 458.458 363.704 458.646 363.6 458.851C363.488 459.07 363.328 459.23 363.121 459.328C362.922 459.425 362.682 459.459 362.402 459.43C362.129 459.399 361.828 459.3 361.499 459.132ZM364.993 460.915C364.683 460.757 364.412 460.564 364.179 460.337C363.948 460.105 363.788 459.882 363.699 459.668L364.133 459.385C364.227 459.577 364.371 459.777 364.566 459.985C364.763 460.187 364.993 460.356 365.255 460.49C365.613 460.672 365.899 460.749 366.112 460.72C366.328 460.685 366.483 460.575 366.578 460.389C366.649 460.251 366.658 460.12 366.607 459.998C366.562 459.873 366.478 459.755 366.355 459.644C366.233 459.528 366.092 459.41 365.93 459.292C365.768 459.173 365.609 459.049 365.452 458.921C365.299 458.795 365.17 458.66 365.063 458.515C364.959 458.366 364.895 458.204 364.87 458.029C364.85 457.856 364.894 457.663 365.004 457.448C365.108 457.243 365.259 457.088 365.457 456.985C365.654 456.881 365.886 456.84 366.151 456.861C366.424 456.88 366.72 456.971 367.04 457.134C367.283 457.258 367.51 457.416 367.719 457.607C367.93 457.793 368.088 457.979 368.192 458.164L367.762 458.459C367.654 458.259 367.516 458.087 367.35 457.942C367.186 457.792 367.008 457.668 366.817 457.571C366.479 457.398 366.198 457.33 365.975 457.366C365.759 457.4 365.605 457.508 365.512 457.689C365.439 457.832 365.425 457.966 365.469 458.091C365.518 458.219 365.602 458.343 365.721 458.463C365.847 458.582 365.989 458.699 366.146 458.815C366.308 458.934 366.464 459.059 366.613 459.189C366.77 459.318 366.902 459.454 367.009 459.599C367.123 459.741 367.19 459.898 367.21 460.071C367.237 460.241 367.198 460.429 367.094 460.634C366.982 460.854 366.822 461.013 366.616 461.112C366.416 461.208 366.176 461.242 365.896 461.214C365.623 461.183 365.322 461.083 364.993 460.915ZM368.192 462.503L368.693 458.023L369.179 458.271L368.689 462.413L368.467 462.3L371.569 459.491L372.006 459.714L371.537 463.867L371.315 463.754L374.403 460.937L374.868 461.175L371.527 464.205L371.047 463.96L371.461 460.04L371.611 460.117L368.672 462.747L368.192 462.503ZM375.124 466.086C374.762 465.901 374.476 465.653 374.268 465.342C374.067 465.029 373.956 464.687 373.935 464.315C373.917 463.939 374.002 463.565 374.192 463.193C374.385 462.816 374.637 462.527 374.95 462.326C375.264 462.125 375.605 462.016 375.974 462C376.343 461.984 376.711 462.07 377.078 462.257C377.45 462.447 377.738 462.696 377.941 463.005C378.15 463.315 378.262 463.655 378.278 464.024C378.299 464.396 378.213 464.77 378.021 465.147C377.831 465.519 377.578 465.808 377.263 466.014C376.954 466.217 376.612 466.328 376.236 466.347C375.862 466.36 375.492 466.273 375.124 466.086ZM375.354 465.635C375.626 465.774 375.898 465.837 376.168 465.825C376.442 465.808 376.694 465.72 376.925 465.562C377.164 465.401 377.357 465.175 377.506 464.884C377.657 464.588 377.726 464.299 377.714 464.016C377.707 463.736 377.629 463.482 377.479 463.256C377.333 463.025 377.126 462.841 376.859 462.705C376.592 462.568 376.322 462.509 376.048 462.526C375.778 462.538 375.524 462.622 375.288 462.778C375.052 462.934 374.859 463.16 374.708 463.456C374.559 463.747 374.49 464.036 374.499 464.324C374.511 464.606 374.591 464.863 374.737 465.095C374.886 465.321 375.092 465.501 375.354 465.635ZM378.097 467.558L380.015 463.801L380.502 464.05L379.979 465.073L380.02 464.869C380.272 464.636 380.559 464.509 380.882 464.488C381.208 464.462 381.555 464.542 381.922 464.73L381.67 465.224C381.651 465.214 381.632 465.204 381.613 465.194C381.596 465.18 381.579 465.168 381.559 465.158C381.164 464.956 380.791 464.919 380.443 465.048C380.097 465.172 379.811 465.456 379.584 465.9L378.606 467.818L378.097 467.558ZM382.356 469.777C381.998 469.594 381.718 469.349 381.514 469.041C381.316 468.735 381.208 468.397 381.192 468.028C381.178 467.654 381.268 467.279 381.46 466.902C381.655 466.521 381.906 466.228 382.215 466.025C382.523 465.821 382.858 465.713 383.22 465.699C383.589 465.683 383.952 465.766 384.31 465.949C384.639 466.117 384.895 466.34 385.077 466.62C385.264 466.901 385.361 467.224 385.367 467.588C385.381 467.95 385.283 468.336 385.074 468.747C384.867 469.152 384.614 469.459 384.315 469.667C384.016 469.876 383.697 469.989 383.357 470.008C383.024 470.024 382.69 469.947 382.356 469.777ZM382.622 469.344C382.889 469.481 383.158 469.543 383.429 469.531C383.707 469.516 383.961 469.43 384.193 469.271C384.431 469.11 384.625 468.884 384.773 468.593C384.924 468.297 384.994 468.008 384.982 467.725C384.974 467.445 384.894 467.191 384.74 466.962C384.593 466.731 384.387 466.547 384.119 466.41C383.857 466.277 383.589 466.218 383.316 466.235C383.045 466.247 382.792 466.331 382.556 466.487C382.32 466.643 382.126 466.869 381.975 467.165C381.827 467.456 381.757 467.745 381.767 468.033C381.779 468.316 381.858 468.573 382.005 468.804C382.154 469.03 382.36 469.21 382.622 469.344ZM383.827 470.483L384.404 469.352L384.841 468.619L385.157 467.824L386.516 465.162L387.024 465.421L384.314 470.731L383.827 470.483Z" fill="white"/>
<path d="M291.175 451.208L489.57 552.397" stroke="white" stroke-miterlimit="10"/>
<path d="M386.918 384.128C386.598 383.965 386.349 383.763 386.172 383.522C385.994 383.281 385.899 383.007 385.888 382.7C385.88 382.396 385.968 382.065 386.151 381.707L387.265 379.525L387.773 379.784L386.688 381.909C386.484 382.31 386.427 382.663 386.518 382.968C386.616 383.271 386.844 383.513 387.202 383.696C387.464 383.83 387.717 383.893 387.962 383.885C388.213 383.875 388.442 383.793 388.646 383.639C388.856 383.488 389.034 383.269 389.18 382.983L390.184 381.015L390.692 381.274L388.775 385.031L388.288 384.783L388.814 383.752L388.798 383.978C388.538 384.194 388.241 384.316 387.908 384.345C387.582 384.371 387.252 384.299 386.918 384.128ZM391.182 386.304C390.872 386.146 390.6 385.954 390.367 385.726C390.137 385.495 389.977 385.272 389.888 385.058L390.321 384.774C390.416 384.966 390.56 385.166 390.755 385.374C390.952 385.577 391.182 385.745 391.444 385.879C391.802 386.062 392.087 386.138 392.301 386.109C392.517 386.075 392.672 385.965 392.767 385.779C392.838 385.64 392.847 385.51 392.795 385.387C392.751 385.262 392.667 385.144 392.543 385.033C392.422 384.917 392.28 384.8 392.119 384.681C391.957 384.562 391.797 384.439 391.64 384.311C391.488 384.185 391.358 384.049 391.252 383.905C391.148 383.756 391.083 383.593 391.058 383.418C391.038 383.246 391.083 383.052 391.192 382.837C391.297 382.632 391.448 382.478 391.645 382.374C391.843 382.27 392.074 382.229 392.34 382.25C392.613 382.269 392.909 382.36 393.229 382.524C393.472 382.648 393.698 382.805 393.907 382.996C394.119 383.182 394.277 383.368 394.381 383.554L393.951 383.848C393.842 383.648 393.705 383.476 393.538 383.331C393.374 383.181 393.197 383.057 393.006 382.96C392.667 382.787 392.386 382.719 392.163 382.755C391.947 382.79 391.793 382.897 391.701 383.079C391.628 383.222 391.613 383.356 391.658 383.481C391.707 383.608 391.791 383.732 391.91 383.853C392.036 383.971 392.177 384.089 392.335 384.205C392.496 384.324 392.652 384.448 392.802 384.579C392.959 384.707 393.091 384.844 393.198 384.988C393.311 385.13 393.378 385.288 393.398 385.46C393.426 385.631 393.387 385.818 393.282 386.024C393.17 386.243 393.011 386.402 392.804 386.501C392.605 386.598 392.365 386.632 392.085 386.603C391.812 386.572 391.511 386.472 391.182 386.304ZM395.263 388.387C394.871 388.188 394.569 387.931 394.356 387.618C394.146 387.3 394.03 386.955 394.009 386.584C393.991 386.208 394.076 385.834 394.266 385.461C394.456 385.089 394.703 384.8 395.007 384.594C395.315 384.391 395.649 384.279 396.008 384.258C396.375 384.235 396.732 384.312 397.081 384.489C397.434 384.67 397.705 384.91 397.894 385.211C398.09 385.51 398.193 385.845 398.202 386.216C398.213 386.583 398.123 386.955 397.93 387.331C397.918 387.355 397.902 387.38 397.883 387.406C397.871 387.43 397.857 387.457 397.843 387.485L394.572 385.816L394.766 385.437L397.764 386.967L397.487 387.015C397.626 386.743 397.689 386.472 397.677 386.201C397.672 385.928 397.6 385.681 397.461 385.459C397.321 385.238 397.12 385.06 396.858 384.926C396.6 384.795 396.338 384.736 396.072 384.751C395.806 384.765 395.561 384.851 395.337 385.007C395.113 385.163 394.931 385.38 394.789 385.656L394.749 385.735C394.603 386.021 394.536 386.306 394.548 386.588C394.567 386.869 394.657 387.128 394.818 387.367C394.986 387.603 395.216 387.795 395.507 387.944C395.736 388.061 395.969 388.128 396.206 388.147C396.448 388.168 396.683 388.132 396.911 388.038L397.029 388.513C396.76 388.628 396.472 388.674 396.166 388.65C395.864 388.628 395.563 388.541 395.263 388.387ZM398.004 389.741L399.921 385.984L400.408 386.233L399.886 387.256L399.927 387.052C400.178 386.819 400.465 386.692 400.789 386.671C401.115 386.645 401.461 386.725 401.829 386.913L401.577 387.407C401.558 387.397 401.538 387.387 401.519 387.377C401.503 387.363 401.485 387.351 401.466 387.341C401.07 387.139 400.698 387.102 400.349 387.231C400.003 387.355 399.717 387.639 399.491 388.083L398.512 390.001L398.004 389.741ZM404.673 388.365C404.979 388.521 405.216 388.717 405.384 388.953C405.559 389.187 405.65 389.456 405.657 389.76C405.669 390.067 405.582 390.401 405.397 390.764L404.283 392.946L403.775 392.687L404.864 390.555C405.066 390.159 405.118 389.809 405.02 389.507C404.929 389.202 404.705 388.958 404.347 388.775C404.08 388.639 403.818 388.574 403.561 388.582C403.312 388.587 403.08 388.664 402.866 388.813C402.659 388.96 402.482 389.177 402.336 389.463L401.328 391.438L400.82 391.179L402.737 387.422L403.224 387.67L402.698 388.701L402.718 388.467C402.976 388.256 403.275 388.141 403.616 388.122C403.958 388.099 404.311 388.18 404.673 388.365ZM408.01 394.848L408.434 394.018L408.482 393.871L409.19 392.483C409.353 392.163 409.388 391.872 409.295 391.607C409.206 391.345 408.985 391.124 408.632 390.944C408.388 390.82 408.136 390.743 407.875 390.712C407.615 390.681 407.374 390.693 407.153 390.749L407.118 390.253C407.391 390.188 407.683 390.181 407.994 390.231C408.308 390.277 408.612 390.375 408.908 390.526C409.395 390.774 409.707 391.087 409.845 391.464C409.991 391.839 409.938 392.272 409.687 392.764L408.497 395.097L408.01 394.848ZM406.697 394.223C406.415 394.079 406.193 393.909 406.029 393.711C405.873 393.511 405.781 393.302 405.754 393.083C405.729 392.86 405.772 392.642 405.882 392.427C405.981 392.231 406.117 392.078 406.288 391.967C406.466 391.853 406.684 391.802 406.943 391.814C407.209 391.824 407.521 391.92 407.878 392.102L409.174 392.763L408.98 393.142L407.699 392.489C407.337 392.304 407.051 392.239 406.842 392.295C406.638 392.353 406.487 392.477 406.39 392.668C406.28 392.883 406.276 393.097 406.377 393.311C406.478 393.525 406.679 393.709 406.98 393.862C407.266 394.009 407.545 394.07 407.816 394.045C408.094 394.019 408.344 393.906 408.566 393.707L408.501 394.116C408.279 394.315 408.011 394.428 407.697 394.454C407.388 394.483 407.054 394.406 406.697 394.223ZM416.507 394.404C416.812 394.56 417.046 394.755 417.21 394.989C417.38 395.22 417.467 395.487 417.469 395.788C417.476 396.093 417.387 396.426 417.202 396.789L416.088 398.971L415.58 398.712L416.668 396.579C416.87 396.183 416.927 395.837 416.839 395.539C416.757 395.239 416.545 395.001 416.201 394.826C415.944 394.694 415.692 394.635 415.445 394.647C415.205 394.657 414.98 394.738 414.771 394.889C414.568 395.039 414.394 395.256 414.248 395.543L413.24 397.518L412.732 397.258L413.82 395.126C414.022 394.73 414.079 394.383 413.991 394.085C413.904 393.783 413.69 393.544 413.346 393.368C413.093 393.239 412.843 393.181 412.597 393.193C412.352 393.201 412.125 393.281 411.916 393.432C411.713 393.581 411.539 393.799 411.393 394.085L410.385 396.06L409.877 395.801L411.794 392.044L412.281 392.293L411.762 393.309L411.775 393.09C412.028 392.876 412.32 392.758 412.651 392.734C412.989 392.708 413.332 392.784 413.68 392.962C414.047 393.149 414.312 393.402 414.475 393.719C414.64 394.032 414.667 394.391 414.556 394.798L414.396 394.617C414.661 394.367 414.98 394.22 415.352 394.176C415.73 394.128 416.115 394.205 416.507 394.404ZM419.043 400.525C418.652 400.325 418.35 400.069 418.137 399.755C417.927 399.437 417.811 399.093 417.79 398.721C417.771 398.345 417.857 397.971 418.047 397.599C418.237 397.227 418.484 396.938 418.787 396.732C419.096 396.528 419.429 396.416 419.789 396.395C420.156 396.372 420.513 396.449 420.861 396.627C421.214 396.807 421.485 397.048 421.675 397.349C421.871 397.647 421.974 397.982 421.982 398.354C421.994 398.72 421.903 399.092 421.711 399.469C421.699 399.493 421.683 399.518 421.664 399.544C421.651 399.568 421.638 399.594 421.623 399.623L418.353 397.953L418.547 397.574L421.545 399.104L421.268 399.153C421.407 398.881 421.47 398.609 421.458 398.338C421.453 398.065 421.381 397.818 421.241 397.596C421.102 397.375 420.901 397.197 420.639 397.063C420.381 396.932 420.119 396.873 419.853 396.888C419.587 396.903 419.342 396.988 419.118 397.144C418.894 397.3 418.711 397.517 418.57 397.794L418.53 397.872C418.384 398.159 418.317 398.443 418.329 398.726C418.348 399.006 418.438 399.266 418.599 399.504C418.767 399.74 418.997 399.933 419.288 400.081C419.517 400.198 419.75 400.266 419.987 400.284C420.228 400.306 420.464 400.269 420.692 400.175L420.81 400.651C420.541 400.766 420.253 400.811 419.947 400.787C419.645 400.766 419.344 400.678 419.043 400.525Z" fill="white"/>
<path d="M325.53 383.85L523.927 485.042" stroke="white" stroke-miterlimit="10"/>
<path d="M384.505 977.887H779.065" stroke="#6C99EA" stroke-miterlimit="10"/>
<path opacity="0.05" d="M639.353 251.086C675.291 246.176 724.92 274.022 688.436 316.663C642.136 370.779 554.619 363.184 567.677 303.708C573.917 275.289 612.652 254.734 639.353 251.086Z" fill="#4B74BC"/>
<path d="M424.4 810.332C412.039 816.234 403.46 821.042 402.424 842.461C402.388 843.208 400.587 843.161 400.442 842.428C396.084 820.352 391.748 815.144 378.846 810.332C376.905 809.608 376.496 805.938 378.5 805.408C395.17 801.003 397.243 791.33 400.442 770.603C400.549 769.91 402.147 769.986 402.424 770.629C406.858 780.966 404.151 801.695 424.965 805.408C427.013 805.775 426.276 809.436 424.4 810.332Z" fill="#6C99EA"/>
<path d="M442.665 776.726C437.661 779.116 434.187 781.062 433.767 789.735C433.751 790.036 433.023 790.018 432.965 789.721C431.2 780.783 429.444 778.674 424.221 776.728C423.435 776.436 423.269 774.95 424.08 774.736C430.829 772.953 431.669 769.037 432.965 760.643C433.007 760.362 433.655 760.393 433.767 760.655C435.561 764.839 434.466 773.232 442.893 774.736C443.724 774.881 443.424 776.362 442.665 776.726Z" fill="#6C99EA"/>
<path d="M842.256 659.997C833.487 664.213 827.4 667.647 826.665 682.943C826.638 683.477 825.362 683.443 825.26 682.918C822.168 667.153 819.092 663.433 809.939 659.997C808.563 659.481 808.272 656.861 809.693 656.481C821.52 653.336 822.99 646.428 825.26 631.623C825.336 631.13 826.47 631.183 826.665 631.643C829.81 639.025 827.889 653.829 842.656 656.481C844.11 656.742 843.587 659.356 842.256 659.997Z" fill="#6C99EA"/>
<path d="M878.579 627.187C870.987 630.837 865.717 633.808 865.081 647.054C865.058 647.514 863.953 647.487 863.863 647.033C861.187 633.384 858.524 630.162 850.598 627.189C849.405 626.742 849.155 624.472 850.386 624.146C860.624 621.423 861.897 615.442 863.863 602.626C863.928 602.197 864.911 602.244 865.081 602.642C867.804 609.033 866.142 621.85 878.927 624.146C880.183 624.369 879.731 626.635 878.579 627.187Z" fill="#6C99EA"/>
<path d="M803.136 626.105C798.633 628.27 795.507 630.033 795.13 637.89C795.116 638.162 794.46 638.147 794.408 637.878C792.82 629.78 791.24 627.872 786.54 626.108C785.832 625.842 785.684 624.497 786.415 624.302C792.489 622.687 793.244 619.14 794.41 611.537C794.448 611.283 795.031 611.312 795.132 611.546C796.747 615.337 795.762 622.94 803.344 624.302C804.088 624.432 803.82 625.777 803.136 626.105Z" fill="#6C99EA"/>
<path d="M813.891 281.339V293.103" stroke="#6C99EA" stroke-miterlimit="10" stroke-linecap="round"/>
<path d="M813.891 305.319V317.083" stroke="#6C99EA" stroke-miterlimit="10" stroke-linecap="round"/>
<path d="M831.763 299.211H820.001" stroke="#6C99EA" stroke-miterlimit="10" stroke-linecap="round"/>
<path d="M807.783 299.211H796.019" stroke="#6C99EA" stroke-miterlimit="10" stroke-linecap="round"/>
<path d="M250.237 688.271V700.033" stroke="#6C99EA" stroke-miterlimit="10" stroke-linecap="round"/>
<path d="M250.237 712.251V724.015" stroke="#6C99EA" stroke-miterlimit="10" stroke-linecap="round"/>
<path d="M268.109 706.143H256.345" stroke="#6C99EA" stroke-miterlimit="10" stroke-linecap="round"/>
<path d="M244.129 706.143H232.365" stroke="#6C99EA" stroke-miterlimit="10" stroke-linecap="round"/>
<path d="M338.105 752.684C337.528 752.684 336.945 752.536 336.414 752.224L317.824 741.331C316.227 740.395 315.691 738.341 316.627 736.744C317.563 735.149 319.616 734.615 321.211 735.549L339.8 746.442C341.398 747.378 341.934 749.431 340.998 751.028C340.374 752.089 339.255 752.684 338.105 752.684Z" fill="#6C99EA"/>
<path d="M334.577 735.909C333.999 735.909 333.413 735.761 332.879 735.444L324.272 730.373C322.679 729.434 322.147 727.379 323.086 725.784C324.026 724.191 326.081 723.655 327.674 724.6L336.282 729.674C337.875 730.612 338.406 732.667 337.468 734.262C336.845 735.321 335.726 735.909 334.577 735.909Z" fill="#6C99EA"/>
<path d="M334.577 735.909C333.999 735.909 333.413 735.761 332.879 735.444L324.272 730.373C322.679 729.434 322.147 727.379 323.086 725.784C324.026 724.191 326.081 723.655 327.674 724.6L336.282 729.674C337.875 730.612 338.406 732.667 337.468 734.262C336.845 735.321 335.726 735.909 334.577 735.909Z" fill="#6C99EA"/>
<path d="M331.342 764.16C330.768 764.16 330.185 764.012 329.651 763.7L311.062 752.809C309.465 751.873 308.929 749.82 309.865 748.225C310.799 746.625 312.849 746.089 314.451 747.027L333.04 757.918C334.638 758.854 335.174 760.907 334.238 762.502C333.614 763.566 332.493 764.16 331.342 764.16Z" fill="#6C99EA"/>
<path d="M298.92 778.976C297.957 778.976 296.981 778.728 296.09 778.203C293.434 776.637 292.547 773.214 294.113 770.553L326.693 715.26C328.257 712.601 331.68 711.717 334.34 713.283C336.997 714.849 337.884 718.271 336.318 720.932L303.739 776.226C302.698 777.993 300.835 778.976 298.92 778.976Z" fill="#CDDFF7"/>
<path d="M298.92 778.976C297.957 778.976 296.981 778.728 296.09 778.203C293.434 776.637 292.547 773.214 294.113 770.553L326.693 715.26C328.257 712.601 331.68 711.717 334.34 713.283C336.997 714.849 337.884 718.271 336.318 720.932L303.739 776.226C302.698 777.993 300.835 778.976 298.92 778.976Z" fill="#CDDFF7"/>
<path opacity="0.15" d="M334.544 713.432L295.634 777.868C295.786 777.979 295.925 778.104 296.092 778.203C296.981 778.725 297.958 778.976 298.923 778.976C300.835 778.976 302.698 777.995 303.739 776.228L336.318 720.934C337.841 718.347 337.03 715.054 334.544 713.432Z" fill="#6C99EA"/>
<path d="M289.274 811.831C283.238 811.831 277.21 809.483 272.693 804.81C263.858 795.67 264.106 781.044 273.245 772.207C282.389 763.371 297.013 763.617 305.848 772.758C310.128 777.184 312.429 783.015 312.324 789.174C312.219 795.333 309.724 801.081 305.296 805.361C300.828 809.682 295.047 811.831 289.274 811.831ZM289.269 776.903C286.292 776.903 283.314 778.011 281.01 780.238C276.299 784.793 276.169 792.335 280.724 797.046C285.28 801.751 292.819 801.881 297.533 797.328C299.816 795.123 301.103 792.161 301.157 788.984C301.21 785.809 300.024 782.805 297.817 780.522C295.489 778.113 292.379 776.903 289.269 776.903Z" fill="#CDDFF7"/>
<path d="M321.213 735.549C319.618 734.615 317.563 735.149 316.629 736.744C315.693 738.341 316.229 740.395 317.827 741.331L325.856 746.035L329.041 740.135L321.213 735.549Z" fill="#CDDFF7"/>
<path d="M322.706 751.864L314.451 747.027C312.852 746.089 310.799 746.625 309.865 748.225C308.929 749.82 309.465 751.873 311.062 752.809L319.518 757.764L322.706 751.864Z" fill="#CDDFF7"/>
<path d="M335.288 729.086L327.674 724.6C326.081 723.655 324.026 724.191 323.086 725.784C322.147 727.379 322.677 729.434 324.272 730.373L331.917 734.876L335.288 729.086Z" fill="#CDDFF7"/>
</svg>
